<?xml version="1.0" encoding="utf-8"?><svg viewBox="0 0 36 36" xmlns="http://www.w3.org/2000/svg" xmlns:xlink="http://www.w3.org/1999/xlink"><style>:root>svg{display:none}:root>svg:target{display:block}</style><svg fill="none" viewBox="0 0 36 36" id="ail-item" xmlns="http://www.w3.org/2000/svg"><rect width="36" height="36" rx="8" fill="#F6F8FA"/><path d="M21.409 9.667c2.941 0 4.925 1.892 4.925 4.716v7.225c0 2.825-1.984 4.725-4.925 4.725H14.6c-2.95 0-4.933-1.9-4.933-4.725v-7.225c0-2.824 1.983-4.716 4.933-4.716h6.809Zm-3.234 4.766a.629.629 0 0 0-.883 0l-3.142 3.125a.645.645 0 0 0 0 .884l3.142 3.125a.629.629 0 0 0 .883 0 .639.639 0 0 0 0-.892l-2.066-2.05H21.4c.35 0 .625-.283.625-.625a.619.619 0 0 0-.625-.625H16.11l2.066-2.058a.639.639 0 0 0 .184-.442.656.656 0 0 0-.184-.442Z" fill="#3679FD"/><path d="M18.175 14.433a.629.629 0 0 0-.883 0l-3.142 3.125a.645.645 0 0 0 0 .884l3.142 3.125a.629.629 0 0 0 .883 0 .639.639 0 0 0 0-.892l-2.066-2.05H21.4c.35 0 .625-.283.625-.625a.619.619 0 0 0-.625-.625H16.11l2.066-2.058a.639.639 0 0 0 .184-.442.656.656 0 0 0-.184-.442Z" fill="#3679FD"/><path d="M18 15v6M15 18h6" stroke="#fff" stroke-width="1.5" stroke-linecap="round" stroke-linejoin="round"/></svg><svg fill="none" viewBox="0 0 36 36" id="ail-item-green" xmlns="http://www.w3.org/2000/svg"><rect width="36" height="36" rx="8" fill="#F6F8FA"/><path d="M21.617 9.666c2.825 0 4.717 1.984 4.717 4.934v6.809c0 2.94-1.892 4.924-4.717 4.924h-7.225c-2.825 0-4.725-1.983-4.725-4.924v-6.81c0-2.95 1.9-4.933 4.725-4.933h7.225Zm-.133 5.834a.734.734 0 0 0-1.034 0l-3.441 3.442-1.459-1.459a.734.734 0 0 0-1.033 0 .734.734 0 0 0 0 1.034L16.5 20.49a.712.712 0 0 0 .509.209.717.717 0 0 0 .516-.209l3.959-3.958a.734.734 0 0 0 0-1.033Z" fill="#6DC26C"/></svg><svg fill="none" viewBox="0 0 24 24" id="arb" xmlns="http://www.w3.org/2000/svg"><path d="M9.84 17.08a.997.997 0 0 1-.707-.293l-3.84-3.84a1 1 0 1 1 1.414-1.414l3.133 3.133 7.453-7.453a1 1 0 0 1 1.414 1.414l-8.16 8.16a.996.996 0 0 1-.707.293Z" fill="#3679FD"/></svg><svg fill="none" viewBox="0 0 20 20" id="arrow-back" xmlns="http://www.w3.org/2000/svg"><path d="M16.667 10.229a.625.625 0 0 1-.54.619l-.085.006H5.055l3.97 3.952a.625.625 0 0 1-.813.946l-.07-.06-5.042-5.02a.627.627 0 0 1-.183-.42v-.048l.002-.036-.002.06a.628.628 0 0 1 .123-.372l.005-.007a.63.63 0 0 1 .055-.062l5.042-5.022a.625.625 0 0 1 .943.816l-.06.07-3.968 3.952h10.985c.345 0 .625.28.625.626Z" fill="#546C97"/></svg><svg fill="none" viewBox="0 0 20 20" id="arrow-left" xmlns="http://www.w3.org/2000/svg"><path d="m12.5 5-5 5 5 5" stroke="#DADCE3" stroke-width="2" stroke-linecap="round" stroke-linejoin="round"/></svg></svg>